<?xml version="1.0" encoding="utf-8"?>
<!-- Generator: Adobe Illustrator 16.0.0, SVG Export Plug-In . SVG Version: 6.00 Build 0)  -->
<!DOCTYPE svg PUBLIC "-//W3C//DTD SVG 1.1//EN" "http://www.w3.org/Graphics/SVG/1.1/DTD/svg11.dtd">
<svg version="1.1" id="Capa_1" xmlns="http://www.w3.org/2000/svg" xmlns:xlink="http://www.w3.org/1999/xlink" x="0px" y="0px"
	 width="200px" height="64px" viewBox="0 0 200 64" enable-background="new 0 0 200 64" xml:space="preserve">
<g>
	<g>
		<path fill="#01579B" d="M40.36,23.288c-1.966-1.966-4.569-3.07-7.33-3.109c-2.854-0.039-5.551,1.045-7.583,3.049
			c-0.757,0.748-1.389,1.588-1.884,2.498c-0.492-0.91-1.125-1.75-1.882-2.498c-2.034-2.004-4.724-3.088-7.583-3.049
			c-2.76,0.039-5.364,1.144-7.33,3.112c-1.966,1.966-3.069,4.57-3.107,7.333c0,0.086,0,0.174,0,0.258
			c0.029,2.55,1.011,5.023,2.77,6.964l12.184,13.465v4.607h2.494V30.765c0-3.783-3.078-6.861-6.861-6.861h-1.271v2.541h1.271
			c2.381,0,4.322,1.939,4.322,4.321v16.708l-3.222-3.559V35.27h-2.54v5.836l-4.492-4.963c-1.342-1.484-2.092-3.359-2.114-5.288
			c0-0.065,0-0.133,0-0.198c0.029-2.097,0.869-4.075,2.364-5.571c1.494-1.496,3.472-2.336,5.566-2.364
			c2.258-0.031,4.379,0.856,5.942,2.497c1.445,1.512,2.22,3.542,2.22,5.633v25.066h2.541V30.852c0-2.089,0.771-4.116,2.211-5.629
			c1.566-1.643,3.691-2.535,5.948-2.501c2.097,0.028,4.072,0.868,5.568,2.364c1.496,1.496,2.336,3.474,2.364,5.569
			c0.021,1.777-0.521,3.468-1.573,4.892l-5.205,5.805v-6.055h-2.54v8.893l-3.047,3.404V30.765c0-2.386,1.932-4.321,4.319-4.321
			h1.271v-2.541h-1.271c-3.788,0-6.862,3.071-6.862,6.861v25.153h2.517v-4.49l12.748-14.227l0.037-0.041l0.034-0.047
			c1.414-1.885,2.145-4.131,2.113-6.492C43.429,27.858,42.327,25.255,40.36,23.288z"/>
		<rect x="18.37" y="6.738" fill="#01579B" width="10.222" height="2.604"/>
		<path fill="#01579B" d="M23.144,20.99c3.098,0.198,5.665-2.367,5.467-5.467c-0.164-2.56-2.233-4.63-4.793-4.794
			c-3.1-0.197-5.665,2.37-5.467,5.467C18.514,18.758,20.582,20.826,23.144,20.99z M23.274,13.329
			c1.562-0.123,2.861,1.175,2.736,2.736c-0.099,1.23-1.093,2.227-2.324,2.324c-1.561,0.125-2.861-1.175-2.735-2.736
			C21.047,14.422,22.043,13.428,23.274,13.329z"/>
	</g>
	<g>
		<path fill="#01579B" d="M52.033,38.637L50.254,44h-3.792l6.422-17.802h4.466L63.645,44h-3.87l-1.754-5.363H52.033z M52.937,35.822
			h4.179l-2.063-6.58L52.937,35.822z"/>
		<path fill="#01579B" d="M79.049,31.436h-3.638c-0.208-1.804-1.213-2.941-3.071-2.941c-1.419,0-2.502,0.671-2.502,2.116
			c0,1.495,0.953,2.243,3.792,2.915c3.92,0.904,5.677,2.709,5.677,5.574c0,3.355-3.071,5.264-6.582,5.264
			c-4.256,0-7.042-1.885-7.378-5.625h3.638c0.386,1.959,1.882,2.969,3.689,2.969c1.626,0,2.917-0.879,2.917-2.246
			c0-1.496-0.929-2.375-3.562-2.992c-3.638-0.879-5.935-2.143-5.935-5.418c0-3.277,2.968-5.215,6.372-5.215
			C76.726,25.836,78.661,28.263,79.049,31.436z"/>
		<path fill="#01579B" d="M83.279,44V26.198h3.561V44H83.279z"/>
		<path fill="#01579B" d="M104.333,31.436h-3.637c-0.207-1.804-1.214-2.941-3.072-2.941c-1.418,0-2.501,0.671-2.501,2.116
			c0,1.495,0.956,2.243,3.793,2.915c3.919,0.904,5.677,2.709,5.677,5.574c0,3.355-3.072,5.264-6.58,5.264
			c-4.258,0-7.045-1.885-7.38-5.625h3.638c0.386,1.959,1.884,2.969,3.688,2.969c1.626,0,2.917-0.879,2.917-2.246
			c0-1.496-0.929-2.375-3.561-2.992c-3.639-0.879-5.936-2.143-5.936-5.418c0-3.277,2.968-5.215,6.374-5.215
			C102.011,25.836,103.946,28.263,104.333,31.436z"/>
		<path fill="#01579B" d="M121.05,31.436h-3.635c-0.207-1.804-1.213-2.941-3.07-2.941c-1.42,0-2.502,0.671-2.502,2.116
			c0,1.495,0.951,2.243,3.791,2.915c3.922,0.904,5.676,2.709,5.676,5.574c0,3.355-3.07,5.264-6.58,5.264
			c-4.256,0-7.043-1.885-7.377-5.625h3.639c0.385,1.959,1.881,2.969,3.688,2.969c1.627,0,2.916-0.879,2.916-2.246
			c0-1.496-0.93-2.375-3.559-2.992c-3.639-0.879-5.936-2.143-5.936-5.418c0-3.277,2.967-5.215,6.371-5.215
			C118.729,25.836,120.665,28.263,121.05,31.436z"/>
		<path fill="#01579B" d="M133.179,28.985V44h-3.561V28.985h-6.039v-2.787h15.637v2.787H133.179z"/>
		<path fill="#01579B" d="M155.237,44h-12.85V26.198h12.592v2.787h-9.031v4.697h8.389v2.811h-8.389v4.699h9.289V44z"/>
		<path fill="#01579B" d="M178.511,44h-3.561v-8.229c0-1.857,0-4.232,0.051-6.089c-0.463,1.857-1.135,4.232-1.65,6.062L170.978,44
			h-4.154l-2.4-8.281c-0.518-1.805-1.16-4.18-1.6-6.009c0.053,1.857,0.053,4.205,0.053,6.062V44h-3.561V26.198h5.908l3.766,14.423
			l3.793-14.423h5.729V44z"/>
		<path fill="#01579B" d="M196.339,44h-12.85V26.198h12.592v2.787h-9.029v4.697h8.385v2.811h-8.385v4.699h9.287V44z"/>
	</g>
</g>
</svg>
